<svg width="58" height="58" viewBox="0 0 58 58" fill="none" xmlns="http://www.w3.org/2000/svg">
<g filter="url(#filter0_d)">
<rect x="4" width="50" height="50" fill="#212121"/>
<path d="M29 12.1875C31.1663 12.1875 32.9365 13.8831 33.0561 16.0195L33.0625 16.25H39.625C40.1428 16.25 40.5625 16.6697 40.5625 17.1875C40.5625 17.6621 40.2098 18.0544 39.7523 18.1164L39.625 18.125H38.63L37.0299 34.399C36.864 36.0854 35.498 37.3875 33.8283 37.4931L33.6089 37.5H24.3912C22.6967 37.5 21.2671 36.2681 20.9985 34.6167L20.9702 34.399L19.3688 18.125H18.375C17.9004 18.125 17.5081 17.7723 17.4461 17.3147L17.4375 17.1875C17.4375 16.7129 17.7902 16.3206 18.2478 16.2586L18.375 16.25H24.9375C24.9375 14.0063 26.7564 12.1875 29 12.1875ZM36.7463 18.125H21.2525L22.8362 34.2155C22.9096 34.962 23.5004 35.5429 24.2323 35.617L24.3912 35.625H33.6089C34.359 35.625 34.9949 35.0939 35.1404 34.3727L35.1639 34.2155L36.7463 18.125ZM31.1875 21.5625C31.6621 21.5625 32.0544 21.9152 32.1165 22.3728L32.125 22.5V31.25C32.125 31.7678 31.7053 32.1875 31.1875 32.1875C30.7129 32.1875 30.3206 31.8348 30.2585 31.3773L30.25 31.25V22.5C30.25 21.9822 30.6697 21.5625 31.1875 21.5625ZM26.8125 21.5625C27.2871 21.5625 27.6794 21.9152 27.7415 22.3728L27.75 22.5V31.25C27.75 31.7678 27.3303 32.1875 26.8125 32.1875C26.3379 32.1875 25.9456 31.8348 25.8836 31.3773L25.875 31.25V22.5C25.875 21.9822 26.2947 21.5625 26.8125 21.5625ZM29 14.0625C27.8522 14.0625 26.911 14.9464 26.8198 16.0706L26.8125 16.25H31.1875C31.1875 15.0419 30.2081 14.0625 29 14.0625Z" fill="white"/>
</g>
<defs>
<filter id="filter0_d" x="0" y="0" width="58" height="58" filterUnits="userSpaceOnUse" color-interpolation-filters="sRGB">
<feFlood flood-opacity="0" result="BackgroundImageFix"/>
<feColorMatrix in="SourceAlpha" type="matrix" values="0 0 0 0 0 0 0 0 0 0 0 0 0 0 0 0 0 0 127 0"/>
<feOffset dy="4"/>
<feGaussianBlur stdDeviation="2"/>
<feColorMatrix type="matrix" values="0 0 0 0 0 0 0 0 0 0 0 0 0 0 0 0 0 0 0.25 0"/>
<feBlend mode="normal" in2="BackgroundImageFix" result="effect1_dropShadow"/>
<feBlend mode="normal" in="SourceGraphic" in2="effect1_dropShadow" result="shape"/>
</filter>
</defs>
</svg>
