<svg width="58" height="58" viewBox="0 0 58 58" fill="none" xmlns="http://www.w3.org/2000/svg">
<g filter="url(#filter0_d)">
<rect x="4" width="50" height="50" fill="white"/>
<path d="M18.7986 17.322C22.4748 12.4275 30.0856 11.0033 35.5035 14.3719C40.8533 17.6982 42.8207 24.0932 40.6296 30.0936C38.5606 35.7594 33.1091 38.0041 29.18 35.1541C27.7083 34.0865 27.1376 32.7481 26.8619 30.5744L26.7301 29.3394L26.6734 28.8426C26.52 27.675 26.2845 27.152 25.7929 26.878C25.1234 26.5047 24.6777 26.4961 23.7986 26.8367L23.3597 27.0187L23.1363 27.1162C21.869 27.6665 21.0261 27.8599 19.9598 27.6365L19.7095 27.5775L19.5051 27.5192C16.0189 26.439 15.5025 21.7103 18.7986 17.322ZM20.0288 25.7176L20.1825 25.7631L20.3499 25.8017C20.8987 25.9104 21.3678 25.8197 22.1462 25.4994L22.8989 25.1779C24.4016 24.5617 25.3805 24.5015 26.7058 25.2401C27.8528 25.8795 28.2999 26.8621 28.5279 28.5647L28.5944 29.1386L28.6621 29.8034L28.721 30.3314C28.9361 32.0329 29.3271 32.9445 30.281 33.6364C33.1251 35.6994 37.199 34.0219 38.8684 29.4505C40.7637 24.2602 39.086 18.8073 34.5134 15.9642C29.9206 13.1086 23.3904 14.3307 20.2978 18.4481C17.7043 21.901 18.0224 25.0475 20.0288 25.7176ZM34.0595 23.2246C33.8361 22.3911 34.3308 21.5343 35.1643 21.311C35.9979 21.0876 36.8546 21.5823 37.078 22.4158C37.3014 23.2494 36.8066 24.1061 35.9731 24.3295C35.1396 24.5529 34.2827 24.0581 34.0595 23.2246ZM34.6776 27.5855C34.4544 26.7519 34.949 25.8951 35.7825 25.6717C36.6161 25.4485 37.4729 25.9431 37.6963 26.7766C37.9195 27.6102 37.4249 28.467 36.5914 28.6904C35.7577 28.9136 34.901 28.419 34.6776 27.5855ZM31.5864 19.4713C31.363 18.6377 31.8576 17.781 32.6911 17.5576C33.5247 17.3343 34.3815 17.8289 34.6049 18.6625C34.8281 19.496 34.3335 20.3528 33.5 20.5761C32.6664 20.7995 31.8096 20.3048 31.5864 19.4713ZM31.5507 30.7192C31.3274 29.8857 31.822 29.029 32.6556 28.8056C33.4891 28.5822 34.3459 29.0769 34.5693 29.9105C34.7926 30.744 34.2979 31.6007 33.4644 31.8241C32.6309 32.0475 31.774 31.5527 31.5507 30.7192ZM27.1795 18.2568C26.9563 17.4232 27.4509 16.5665 28.2844 16.3431C29.118 16.1198 29.9747 16.6144 30.1981 17.448C30.4214 18.2815 29.9268 19.1383 29.0933 19.3616C28.2596 19.585 27.4029 19.0903 27.1795 18.2568Z" fill="#212121"/>
</g>
<defs>
<filter id="filter0_d" x="0" y="0" width="58" height="58" filterUnits="userSpaceOnUse" color-interpolation-filters="sRGB">
<feFlood flood-opacity="0" result="BackgroundImageFix"/>
<feColorMatrix in="SourceAlpha" type="matrix" values="0 0 0 0 0 0 0 0 0 0 0 0 0 0 0 0 0 0 127 0"/>
<feOffset dy="4"/>
<feGaussianBlur stdDeviation="2"/>
<feColorMatrix type="matrix" values="0 0 0 0 0 0 0 0 0 0 0 0 0 0 0 0 0 0 0.25 0"/>
<feBlend mode="normal" in2="BackgroundImageFix" result="effect1_dropShadow"/>
<feBlend mode="normal" in="SourceGraphic" in2="effect1_dropShadow" result="shape"/>
</filter>
</defs>
</svg>
