<svg width="58" height="58" viewBox="0 0 58 58" fill="none" xmlns="http://www.w3.org/2000/svg">
<g filter="url(#filter0_d)">
<rect x="4" width="50" height="50" fill="#BCDBFF"/>
<path d="M38.2558 13.2465C38.6508 13.5626 39 14.0417 39 14.6868C39 15.6673 38.376 16.3062 37.6654 16.6788C36.984 17.0361 36.0921 17.232 35.1527 17.3507C33.339 17.58 30.9717 17.5604 28.6715 17.5414L28.3675 17.539C25.923 17.5193 23.5813 17.5125 21.852 17.7682C20.9804 17.8971 20.3647 18.08 19.9901 18.2971C19.6546 18.4915 19.6253 18.6346 19.625 18.7481L19.6262 18.7505C19.6322 18.7618 19.6548 18.7985 19.7195 18.8548C19.8585 18.9758 20.113 19.1204 20.5148 19.263C21.313 19.5462 22.4323 19.733 23.6221 19.8481C23.7481 19.8603 23.8742 19.8717 24 19.8822V21.7633C23.8147 21.7487 23.6282 21.7325 23.4415 21.7144C22.2091 21.5952 20.9063 21.3914 19.8878 21.03C19.3814 20.8503 18.879 20.6092 18.4881 20.2688C18.0811 19.9143 17.75 19.4066 17.75 18.75C17.75 17.7701 18.3278 17.0933 19.05 16.6748C19.7349 16.2779 20.6328 16.0531 21.5777 15.9134C23.4812 15.632 25.9832 15.6447 28.3825 15.664L28.6101 15.6659C30.9769 15.6851 33.2325 15.7035 34.9176 15.4905C35.7946 15.3797 36.4164 15.2166 36.7946 15.0182C37.0374 14.891 37.1022 14.7975 37.1192 14.7405C37.1105 14.7323 37.0991 14.7224 37.0844 14.7106C36.9625 14.6131 36.7264 14.4887 36.3377 14.365C35.5689 14.1203 34.474 13.9606 33.2618 13.8644C31.2691 13.7063 29.153 13.7314 28.0154 13.7449C27.776 13.7478 27.58 13.7501 27.4375 13.7501C26.9198 13.7501 26.5 13.3304 26.5 12.8126C26.5 12.2948 26.9198 11.8751 27.4375 11.8751C27.5608 11.8751 27.7384 11.8729 27.9605 11.8702C29.077 11.8566 31.3165 11.8292 33.4101 11.9953C34.6589 12.0944 35.9272 12.2667 36.9064 12.5783C37.3919 12.7328 37.876 12.9427 38.2558 13.2465ZM31.4937 21.6612C31.4102 19.9614 30.3725 18.75 28.6868 18.75C26.9276 18.75 25.8742 20.069 25.8742 21.8856V27.0953L25.5502 26.9959C24.0613 26.5613 22.8948 26.5364 22.0175 26.9751C20.8257 27.571 20.213 28.6401 20.2438 30.0259C20.2515 30.3741 20.4516 30.6894 20.7635 30.8445L23.7171 32.3138L23.8389 32.3793L23.9562 32.4523L26.3109 34.022L26.5526 34.1955C27.1015 34.6185 27.5421 35.1681 27.8356 35.7991L27.872 35.8774L27.9711 36.0709C28.5363 37.0756 29.6658 37.641 30.8215 37.4751L33.8444 37.0414L34.0509 37.0039C35.0709 36.779 35.8895 36.0035 36.162 34.9834L37.4722 30.0794L37.5255 29.855C37.9615 27.7601 36.6889 25.6651 34.596 25.106C34.4894 25.0775 34.3817 25.0534 34.2732 25.0336L31.4993 24.53V21.8856L31.4937 21.6612ZM27.7541 21.708C27.7962 20.9687 28.1118 20.625 28.6868 20.625C29.3059 20.625 29.6243 21.0236 29.6243 21.8856V25.3125L29.6337 25.4464C29.6903 25.8403 29.993 26.1621 30.3943 26.235L34.0255 26.8961L34.112 26.9174C35.2792 27.2293 35.9726 28.4283 35.6607 29.5954L34.3506 34.4994L34.3047 34.6308C34.1766 34.9263 33.9032 35.1388 33.578 35.1854L30.5553 35.6191L30.4195 35.6286C30.0599 35.6279 29.727 35.4198 29.572 35.0865L29.5356 35.0084L29.3832 34.703C28.9019 33.8014 28.2044 33.0309 27.351 32.4619L24.9963 30.8921L24.7783 30.7566L24.5522 30.635L22.1707 29.4504L22.2188 29.3009C22.3307 29.0158 22.5385 28.8109 22.856 28.6521C23.4026 28.3789 24.6286 28.5545 26.4544 29.3074C27.0715 29.5618 27.7493 29.1081 27.7493 28.4406V21.8856L27.7541 21.708Z" fill="#212121"/>
</g>
<defs>
<filter id="filter0_d" x="0" y="0" width="58" height="58" filterUnits="userSpaceOnUse" color-interpolation-filters="sRGB">
<feFlood flood-opacity="0" result="BackgroundImageFix"/>
<feColorMatrix in="SourceAlpha" type="matrix" values="0 0 0 0 0 0 0 0 0 0 0 0 0 0 0 0 0 0 127 0"/>
<feOffset dy="4"/>
<feGaussianBlur stdDeviation="2"/>
<feColorMatrix type="matrix" values="0 0 0 0 0 0 0 0 0 0 0 0 0 0 0 0 0 0 0.25 0"/>
<feBlend mode="normal" in2="BackgroundImageFix" result="effect1_dropShadow"/>
<feBlend mode="normal" in="SourceGraphic" in2="effect1_dropShadow" result="shape"/>
</filter>
</defs>
</svg>
