<svg width="58" height="58" viewBox="0 0 58 58" fill="none" xmlns="http://www.w3.org/2000/svg">
<g filter="url(#filter0_d)">
<rect x="4" width="50" height="50" fill="#212121"/>
<path d="M39.3233 15.5049C39.7979 15.5053 40.1898 15.8584 40.2514 16.316L40.2599 16.4432L40.2547 22.0654C40.2511 23.5108 39.1589 24.7003 37.7536 24.8578L37.7531 27.6825C37.7531 29.1711 36.5966 30.3896 35.1331 30.4885L34.9406 30.495L34.6262 30.4949L34.6273 33.9845C34.6273 35.0032 34.0771 35.9361 33.2001 36.4322L33.0073 36.5317L24.7139 40.4146C24.1311 40.6874 23.4677 40.3057 23.387 39.6914L23.3788 39.5655L23.3787 30.4949L23.0625 30.495C21.5739 30.495 20.3554 29.3385 20.2565 27.8751L20.25 27.6825L20.2506 24.8584C18.911 24.7106 17.8549 23.622 17.7574 22.268L17.75 22.063V16.4424C17.75 15.9246 18.1697 15.5049 18.6875 15.5049C19.1621 15.5049 19.5544 15.8576 19.6164 16.3152L19.625 16.4424V22.063C19.625 22.5376 19.9777 22.9298 20.4353 22.9919L20.5625 23.0005H37.4391C37.9145 22.9997 38.3076 22.6464 38.3709 22.1892L38.3797 22.0621L38.3849 16.4415C38.3854 15.9238 38.8055 15.5044 39.3233 15.5049ZM32.7513 30.4949H25.2538L25.2538 38.0914L32.2123 34.8336C32.5005 34.6986 32.6978 34.4284 32.7425 34.1191L32.7522 33.9845L32.7513 30.4949ZM35.8775 24.8749H22.125V27.6825C22.125 28.1571 22.4777 28.5494 22.9353 28.6115L23.0625 28.62H34.9406C35.4153 28.62 35.8075 28.2674 35.8695 27.8097L35.8781 27.6825L35.8775 24.8749Z" fill="white"/>
</g>
<defs>
<filter id="filter0_d" x="0" y="0" width="58" height="58" filterUnits="userSpaceOnUse" color-interpolation-filters="sRGB">
<feFlood flood-opacity="0" result="BackgroundImageFix"/>
<feColorMatrix in="SourceAlpha" type="matrix" values="0 0 0 0 0 0 0 0 0 0 0 0 0 0 0 0 0 0 127 0"/>
<feOffset dy="4"/>
<feGaussianBlur stdDeviation="2"/>
<feColorMatrix type="matrix" values="0 0 0 0 0 0 0 0 0 0 0 0 0 0 0 0 0 0 0.25 0"/>
<feBlend mode="normal" in2="BackgroundImageFix" result="effect1_dropShadow"/>
<feBlend mode="normal" in="SourceGraphic" in2="effect1_dropShadow" result="shape"/>
</filter>
</defs>
</svg>
