<svg width="58" height="58" viewBox="0 0 58 58" fill="none" xmlns="http://www.w3.org/2000/svg">
<g filter="url(#filter0_d)">
<rect x="4" width="50" height="50" fill="white"/>
<path d="M22.25 14.5C20.1789 14.5 18.5 16.1789 18.5 18.25V31.75C18.5 33.821 20.1789 35.5 22.25 35.5H35.75C37.821 35.5 39.5 33.821 39.5 31.75V23.2426C39.5 22.2481 39.1049 21.2942 38.4017 20.591L33.4089 15.5983C32.7057 14.8951 31.7519 14.5 30.7574 14.5H22.25ZM20 18.25C20 17.0074 21.0074 16 22.25 16H30.5V21.25C30.5 22.4926 31.5074 23.5 32.75 23.5H38V31.75C38 32.9926 36.9926 34 35.75 34H22.25C21.0074 34 20 32.9926 20 31.75V18.25ZM37.6257 22H32.75C32.3358 22 32 21.6642 32 21.25V16.3743C32.1245 16.4567 32.2412 16.5519 32.3483 16.659L37.3411 21.6517C37.4482 21.7588 37.5432 21.8756 37.6257 22Z" fill="#212121"/>
</g>
<defs>
<filter id="filter0_d" x="0" y="0" width="58" height="58" filterUnits="userSpaceOnUse" color-interpolation-filters="sRGB">
<feFlood flood-opacity="0" result="BackgroundImageFix"/>
<feColorMatrix in="SourceAlpha" type="matrix" values="0 0 0 0 0 0 0 0 0 0 0 0 0 0 0 0 0 0 127 0"/>
<feOffset dy="4"/>
<feGaussianBlur stdDeviation="2"/>
<feColorMatrix type="matrix" values="0 0 0 0 0 0 0 0 0 0 0 0 0 0 0 0 0 0 0.25 0"/>
<feBlend mode="normal" in2="BackgroundImageFix" result="effect1_dropShadow"/>
<feBlend mode="normal" in="SourceGraphic" in2="effect1_dropShadow" result="shape"/>
</filter>
</defs>
</svg>
