<svg width="58" height="58" viewBox="0 0 58 58" fill="none" xmlns="http://www.w3.org/2000/svg">
<g filter="url(#filter0_d)">
<rect x="4" width="50" height="50" fill="white"/>
<path d="M25.454 15.6431C25.6274 16.0517 25.4367 16.5234 25.0281 16.6967C21.3787 18.245 18.8214 21.8605 18.8214 26.0714C18.8214 31.6929 23.3785 36.25 29 36.25C34.6215 36.25 39.1786 31.6929 39.1786 26.0714C39.1786 21.8605 36.6213 18.245 32.9719 16.6967C32.5634 16.5234 32.3727 16.0517 32.546 15.6431C32.7193 15.2346 33.191 15.0439 33.5995 15.2172C37.8217 17.0085 40.7857 21.1929 40.7857 26.0714C40.7857 32.5805 35.509 37.8571 29 37.8571C22.4909 37.8571 17.2143 32.5805 17.2143 26.0714C17.2143 21.1929 20.1783 17.0085 24.4005 15.2172C24.809 15.0439 25.2808 15.2346 25.454 15.6431Z" fill="#212121"/>
<path d="M29 12.1429C29.4438 12.1429 29.8036 12.5026 29.8036 12.9464V23.125C29.8036 23.5688 29.4438 23.9286 29 23.9286C28.5562 23.9286 28.1964 23.5688 28.1964 23.125V12.9464C28.1964 12.5026 28.5562 12.1429 29 12.1429Z" fill="#212121"/>
</g>
<defs>
<filter id="filter0_d" x="0" y="0" width="58" height="58" filterUnits="userSpaceOnUse" color-interpolation-filters="sRGB">
<feFlood flood-opacity="0" result="BackgroundImageFix"/>
<feColorMatrix in="SourceAlpha" type="matrix" values="0 0 0 0 0 0 0 0 0 0 0 0 0 0 0 0 0 0 127 0"/>
<feOffset dy="4"/>
<feGaussianBlur stdDeviation="2"/>
<feColorMatrix type="matrix" values="0 0 0 0 0 0 0 0 0 0 0 0 0 0 0 0 0 0 0.25 0"/>
<feBlend mode="normal" in2="BackgroundImageFix" result="effect1_dropShadow"/>
<feBlend mode="normal" in="SourceGraphic" in2="effect1_dropShadow" result="shape"/>
</filter>
</defs>
</svg>
