<svg width="58" height="58" viewBox="0 0 58 58" fill="none" xmlns="http://www.w3.org/2000/svg">
<g filter="url(#filter0_d)">
<rect x="4" width="50" height="50" fill="white"/>
<path d="M31.4059 13.1287C32.4031 13.1287 33.3259 13.6567 33.8309 14.5166L34.8491 16.2498H37.4375C39.6811 16.2498 41.5 18.0687 41.5 20.3123V32.1874C41.5 34.431 39.6811 36.2499 37.4375 36.2499H20.5625C18.3188 36.2499 16.5 34.431 16.5 32.1874V20.3123C16.5 18.0687 18.3188 16.2498 20.5625 16.2498H23.163L24.2562 14.4695C24.7678 13.6363 25.6753 13.1287 26.653 13.1287H31.4059ZM31.4059 15.0037H26.653C26.3737 15.0037 26.1115 15.128 25.9349 15.3384L25.8541 15.4506L24.4864 17.6779C24.3159 17.9556 24.0134 18.1248 23.6875 18.1248H20.5625C19.3544 18.1248 18.375 19.1042 18.375 20.3123V32.1874C18.375 33.3955 19.3544 34.3749 20.5625 34.3749H37.4375C38.6456 34.3749 39.625 33.3955 39.625 32.1874V20.3123C39.625 19.1042 38.6456 18.1248 37.4375 18.1248H34.3125C33.9801 18.1248 33.6725 17.9488 33.5041 17.6622L32.2142 15.4663C32.0459 15.1797 31.7382 15.0037 31.4059 15.0037ZM29 19.9998C32.1066 19.9998 34.625 22.5182 34.625 25.6249C34.625 28.7315 32.1066 31.2499 29 31.2499C25.8934 31.2499 23.375 28.7315 23.375 25.6249C23.375 22.5182 25.8934 19.9998 29 19.9998ZM29 21.8748C26.9289 21.8748 25.25 23.5537 25.25 25.6249C25.25 27.6959 26.9289 29.3749 29 29.3749C31.0711 29.3749 32.75 27.6959 32.75 25.6249C32.75 23.5537 31.0711 21.8748 29 21.8748Z" fill="#121212"/>
</g>
<defs>
<filter id="filter0_d" x="0" y="0" width="58" height="58" filterUnits="userSpaceOnUse" color-interpolation-filters="sRGB">
<feFlood flood-opacity="0" result="BackgroundImageFix"/>
<feColorMatrix in="SourceAlpha" type="matrix" values="0 0 0 0 0 0 0 0 0 0 0 0 0 0 0 0 0 0 127 0"/>
<feOffset dy="4"/>
<feGaussianBlur stdDeviation="2"/>
<feColorMatrix type="matrix" values="0 0 0 0 0 0 0 0 0 0 0 0 0 0 0 0 0 0 0.25 0"/>
<feBlend mode="normal" in2="BackgroundImageFix" result="effect1_dropShadow"/>
<feBlend mode="normal" in="SourceGraphic" in2="effect1_dropShadow" result="shape"/>
</filter>
</defs>
</svg>
