<svg width="58" height="58" viewBox="0 0 58 58" fill="none" xmlns="http://www.w3.org/2000/svg">
<g filter="url(#filter0_d)">
<rect x="4" width="50" height="50" fill="white"/>
<path d="M29.0155 12.8125C29.933 12.8231 30.8469 12.9291 31.7424 13.1288C32.1334 13.216 32.4258 13.5419 32.4701 13.9399L32.6829 15.8485C32.7791 16.7248 33.519 17.3886 34.4011 17.3895C34.6381 17.3899 34.8728 17.3405 35.0918 17.2435L36.8426 16.4745C37.2068 16.3145 37.6321 16.4017 37.904 16.692C39.1693 18.0433 40.1115 19.6639 40.6599 21.432C40.7781 21.8132 40.6421 22.2275 40.3208 22.4644L38.7689 23.6082C38.3263 23.9335 38.0648 24.45 38.0648 24.9994C38.0648 25.5486 38.3263 26.0651 38.7699 26.3911L40.3231 27.5354C40.6445 27.7721 40.7808 28.1865 40.6624 28.5679C40.1143 30.3356 39.1725 31.9561 37.908 33.3076C37.6364 33.5979 37.2113 33.6854 36.8471 33.5258L35.0893 32.7556C34.5864 32.5355 34.0088 32.5678 33.5335 32.8425C33.0583 33.1171 32.7419 33.6015 32.6815 34.1471L32.4701 36.0555C32.4266 36.449 32.1405 36.7728 31.7554 36.8644C29.9448 37.2951 28.0584 37.2951 26.2479 36.8644C25.8627 36.7728 25.5766 36.449 25.533 36.0555L25.322 34.15C25.26 33.6054 24.9432 33.1225 24.4683 32.8487C23.9934 32.575 23.4168 32.5429 22.9156 32.7618L21.1573 33.532C20.7931 33.6916 20.3679 33.6041 20.0963 33.3136C18.8311 31.9606 17.8893 30.3381 17.3418 28.5685C17.2239 28.1874 17.3601 27.7732 17.6814 27.5366L19.2355 26.3916C19.6782 26.0664 19.9397 25.5499 19.9397 25.0006C19.9397 24.4512 19.6782 23.9347 19.235 23.6091L17.6818 22.4661C17.3601 22.2293 17.2237 21.8147 17.342 21.4332C17.8905 19.6652 18.8327 18.0445 20.098 16.6933C20.3698 16.4029 20.7952 16.3157 21.1594 16.4757L22.9098 17.2447C23.4135 17.4657 23.9926 17.4323 24.47 17.1534C24.9454 16.8776 25.2619 16.3928 25.323 15.847L25.5356 13.9399C25.58 13.5417 25.8726 13.2157 26.2638 13.1287C27.1604 12.9293 28.0753 12.8233 29.0155 12.8125ZM29.0158 14.6874C28.4483 14.6941 27.8823 14.743 27.3226 14.8338L27.1864 16.0552C27.0591 17.1921 26.4004 18.2013 25.4133 18.7738C24.4203 19.354 23.2095 19.4238 22.156 18.9615L21.0332 18.4682C20.3183 19.3359 19.7492 20.3142 19.3485 21.3646L20.3457 22.0985C21.2692 22.777 21.8147 23.8546 21.8147 25.0006C21.8147 26.1465 21.2692 27.2241 20.3467 27.9019L19.3479 28.6378C19.7483 29.69 20.3174 30.6701 21.0328 31.5395L22.1642 31.0439C23.2118 30.5865 24.4144 30.6534 25.4047 31.2243C26.3951 31.7951 27.0558 32.8021 27.1853 33.9407L27.3215 35.1706C28.4335 35.3597 29.5696 35.3597 30.6816 35.1706L30.8179 33.9409C30.9439 32.8026 31.6038 31.7921 32.5953 31.2191C33.5869 30.646 34.7918 30.5787 35.8413 31.0381L36.9719 31.5334C37.6866 30.6654 38.2555 29.6869 38.6561 28.6363L37.6588 27.9014C36.7353 27.2229 36.1898 26.1453 36.1898 24.9994C36.1898 23.8534 36.7353 22.7757 37.6576 22.0981L38.6536 21.3639C38.2529 20.3133 37.6838 19.3348 36.9688 18.467L35.8481 18.9592C35.3915 19.1613 34.8975 19.2653 34.3986 19.2645C32.5615 19.2626 31.0198 17.8794 30.8193 16.0548L30.683 14.8334C30.1261 14.7427 29.5661 14.6939 29.0158 14.6874ZM28.9999 20.3124C31.5888 20.3124 33.6874 22.4111 33.6874 25C33.6874 27.5888 31.5888 29.6875 28.9999 29.6875C26.4111 29.6875 24.3124 27.5888 24.3124 25C24.3124 22.4111 26.4111 20.3124 28.9999 20.3124ZM28.9999 22.1874C27.4466 22.1874 26.1874 23.4466 26.1874 25C26.1874 26.5532 27.4466 27.8125 28.9999 27.8125C30.5533 27.8125 31.8124 26.5532 31.8124 25C31.8124 23.4466 30.5533 22.1874 28.9999 22.1874Z" fill="#212121"/>
</g>
<defs>
<filter id="filter0_d" x="0" y="0" width="58" height="58" filterUnits="userSpaceOnUse" color-interpolation-filters="sRGB">
<feFlood flood-opacity="0" result="BackgroundImageFix"/>
<feColorMatrix in="SourceAlpha" type="matrix" values="0 0 0 0 0 0 0 0 0 0 0 0 0 0 0 0 0 0 127 0"/>
<feOffset dy="4"/>
<feGaussianBlur stdDeviation="2"/>
<feColorMatrix type="matrix" values="0 0 0 0 0 0 0 0 0 0 0 0 0 0 0 0 0 0 0.25 0"/>
<feBlend mode="normal" in2="BackgroundImageFix" result="effect1_dropShadow"/>
<feBlend mode="normal" in="SourceGraphic" in2="effect1_dropShadow" result="shape"/>
</filter>
</defs>
</svg>
