<svg width="58" height="58" viewBox="0 0 58 58" fill="none" xmlns="http://www.w3.org/2000/svg">
<g filter="url(#filter0_d)">
<rect x="4" width="50" height="50" fill="white"/>
<path d="M33.8014 13.3265C32.7099 12.2132 30.9211 12.2001 29.8136 13.2973L17.8156 25.183C16.7014 26.2869 16.7053 28.0889 17.8244 29.1877L24.1982 35.4471C25.3034 36.5325 27.0783 36.5199 28.1679 35.4189L30.3986 33.1646C30.3014 32.7504 30.25 32.3184 30.25 31.8744C30.25 31.3899 30.3113 30.9196 30.4265 30.471L29.9893 30.9129L22.3785 23.3021L31.1333 14.6294C31.5024 14.2637 32.0986 14.268 32.4624 14.6391L38.6 20.8994C38.9586 21.2652 38.9572 21.8511 38.5969 22.2152L34.4151 26.4408C34.8806 26.316 35.37 26.2494 35.875 26.2494C36.2986 26.2494 36.7114 26.2962 37.1081 26.385L39.9296 23.5341C41.0106 22.4418 41.0148 20.6841 39.9389 19.5868L33.8014 13.3265ZM21.0464 24.6218L28.6703 32.2456L26.8351 34.0999C26.4719 34.4669 25.8803 34.4711 25.5119 34.1094L19.1381 27.85C18.7651 27.4836 18.7638 26.883 19.1352 26.5151L21.0464 24.6218Z" fill="#212121"/>
<path d="M36.0035 27.5012C38.3603 27.5692 40.25 29.5011 40.25 31.8744C40.25 34.2906 38.2912 36.2494 35.875 36.2494C33.517 36.2494 31.5947 34.384 31.5034 32.0484C31.5014 31.9955 31.5002 31.9423 31.5 31.8889C31.5 31.8841 31.5 31.8793 31.5 31.8744C31.5 29.4581 33.4588 27.4994 35.875 27.4994C35.918 27.4994 35.9608 27.5 36.0035 27.5012Z" fill="#212121"/>
</g>
<defs>
<filter id="filter0_d" x="0" y="0" width="58" height="58" filterUnits="userSpaceOnUse" color-interpolation-filters="sRGB">
<feFlood flood-opacity="0" result="BackgroundImageFix"/>
<feColorMatrix in="SourceAlpha" type="matrix" values="0 0 0 0 0 0 0 0 0 0 0 0 0 0 0 0 0 0 127 0"/>
<feOffset dy="4"/>
<feGaussianBlur stdDeviation="2"/>
<feColorMatrix type="matrix" values="0 0 0 0 0 0 0 0 0 0 0 0 0 0 0 0 0 0 0.25 0"/>
<feBlend mode="normal" in2="BackgroundImageFix" result="effect1_dropShadow"/>
<feBlend mode="normal" in="SourceGraphic" in2="effect1_dropShadow" result="shape"/>
</filter>
</defs>
</svg>
