<svg width="58" height="58" viewBox="0 0 58 58" fill="none" xmlns="http://www.w3.org/2000/svg">
<g filter="url(#filter0_d)">
<rect x="4" width="50" height="50" fill="#212121"/>
<path d="M20.25 15.9375C20.25 15.4197 20.6697 15 21.1875 15H36.8125C37.3303 15 37.75 15.4197 37.75 15.9375V18.4375C37.75 18.9553 37.3303 19.375 36.8125 19.375C36.2947 19.375 35.875 18.9553 35.875 18.4375V16.875H29.9375V33.125H31.8125C32.3303 33.125 32.75 33.5447 32.75 34.0625C32.75 34.5803 32.3303 35 31.8125 35H26.1875C25.6697 35 25.25 34.5803 25.25 34.0625C25.25 33.5447 25.6697 33.125 26.1875 33.125H28.0625V16.875H22.125V18.4375C22.125 18.9553 21.7053 19.375 21.1875 19.375C20.6697 19.375 20.25 18.9553 20.25 18.4375V15.9375Z" fill="white"/>
</g>
<defs>
<filter id="filter0_d" x="0" y="0" width="58" height="58" filterUnits="userSpaceOnUse" color-interpolation-filters="sRGB">
<feFlood flood-opacity="0" result="BackgroundImageFix"/>
<feColorMatrix in="SourceAlpha" type="matrix" values="0 0 0 0 0 0 0 0 0 0 0 0 0 0 0 0 0 0 127 0"/>
<feOffset dy="4"/>
<feGaussianBlur stdDeviation="2"/>
<feColorMatrix type="matrix" values="0 0 0 0 0 0 0 0 0 0 0 0 0 0 0 0 0 0 0.25 0"/>
<feBlend mode="normal" in2="BackgroundImageFix" result="effect1_dropShadow"/>
<feBlend mode="normal" in="SourceGraphic" in2="effect1_dropShadow" result="shape"/>
</filter>
</defs>
</svg>
